<?xml version="1.0" encoding="UTF-8" standalone="no"?>
<svg xmlns="http://www.w3.org/2000/svg" width="834.12" height="734.42" version="1.1">
<title>2.3.4 Примыкание второстепенной дороги</title>
<path style="fill:#ffffff;" d="m 789.12 734.42 a 45 45 0 0 0 45 -45 a 45 45 0 0 0 -6.03 -22.50 l -372.06 -644.42 a 45 45 0 0 0 -38.97 -22.50 a 45 45 0 0 0 -38.97 22.50 l -372.06 644.42 a 45 45 0 0 0 -6.03 22.50 a 45 45 0 0 0 45 45 z"/>
<path style="fill:none;stroke:#000000;stroke-width:2;" d="m 789.12 733.42 a 44 44 0 0 0 44 -44 a 44 44 0 0 0 -5.89 -22 l -372.06 -644.42 a 44 44 0 0 0 -38.11 -22 a 44 44 0 0 0 -38.11 22 l -372.06 644.42 a 44 44 0 0 0 -5.89 22 a 44 44 0 0 0 44 44 z"/>
<path style="fill:#ff0000;" d="m 789.12 724.42 a 35 35 0 0 0 35 -35 a 35 35 0 0 0 -4.69 -17.50 l -372.06 -644.42 a 35 35 0 0 0 -30.31 -17.50 a 35 35 0 0 0 -30.31 17.50 l -372.06 644.42 a 35 35 0 0 0 -4.69 17.50 a 35 35 0 0 0 35 35 z m -685.48 -58.85 a 10 10 0 0 1 -10 -10 a 10 10 0 0 1 1.34 -5 l 313.42 -542.87 a 10 10 0 0 1 8.66 -5 a 10 10 0 0 1 8.66 5 l 313.42 542.87 a 10 10 0 0 1 1.34 5 a 10 10 0 0 1 -10 10 z"/>
<path style="fill:#000000;" d="m 462.96 642.62 v -172.13 l 92.38 -92.38 l -17.82 -30.87 l -74.56 74.56 v -169.35 h -91.80 v 390.16 z"/>
</svg>
