<?xml version="1.0" encoding="UTF-8" standalone="no"?>
<!-- Created with Inkscape (http://www.inkscape.org/) -->

<svg
   xmlns:dc="http://purl.org/dc/elements/1.1/"
   xmlns:cc="http://creativecommons.org/ns#"
   xmlns:rdf="http://www.w3.org/1999/02/22-rdf-syntax-ns#"
   xmlns:svg="http://www.w3.org/2000/svg"
   xmlns="http://www.w3.org/2000/svg"
   xmlns:sodipodi="http://sodipodi.sourceforge.net/DTD/sodipodi-0.dtd"
   xmlns:inkscape="http://www.inkscape.org/namespaces/inkscape"
   width="600"
   height="900"
   id="svg2"
   version="1.1"
   inkscape:version="0.48.4 r9939"
   sodipodi:docname="4.8.3.svg">
  <title
     id="title3002">4.8.3 Направление движения транспортных средств с опасными грузами</title>
  <defs
     id="defs4" />
  <sodipodi:namedview
     id="base"
     pagecolor="#ffffff"
     bordercolor="#666666"
     borderopacity="1.0"
     inkscape:pageopacity="0.0"
     inkscape:pageshadow="2"
     inkscape:zoom="1"
     inkscape:cx="406.6491"
     inkscape:cy="524.64235"
     inkscape:document-units="px"
     inkscape:current-layer="layer1"
     showgrid="false"
     inkscape:window-width="1920"
     inkscape:window-height="1024"
     inkscape:window-x="-4"
     inkscape:window-y="-4"
     inkscape:window-maximized="1"
     inkscape:snap-bbox="false"
     inkscape:bbox-paths="true"
     inkscape:bbox-nodes="true"
     inkscape:snap-bbox-edge-midpoints="true"
     inkscape:snap-bbox-midpoints="true"
     inkscape:object-paths="true"
     inkscape:snap-intersection-paths="true"
     inkscape:object-nodes="true"
     inkscape:snap-smooth-nodes="true" />
  <metadata
     id="metadata7">
    <rdf:RDF>
      <cc:Work
         rdf:about="">
        <dc:format>image/svg+xml</dc:format>
        <dc:type
           rdf:resource="http://purl.org/dc/dcmitype/StillImage" />
        <dc:title>4.8.3 Направление движения транспортных средств с опасными грузами</dc:title>
        <cc:license
           rdf:resource="http://creativecommons.org/licenses/by-sa/3.0/" />
        <dc:description>ГОСТ Р 52290-2004
Размеры и пропорции по типоразмеру I</dc:description>
      </cc:Work>
      <cc:License
         rdf:about="http://creativecommons.org/licenses/by-sa/3.0/">
        <cc:permits
           rdf:resource="http://creativecommons.org/ns#Reproduction" />
        <cc:permits
           rdf:resource="http://creativecommons.org/ns#Distribution" />
        <cc:requires
           rdf:resource="http://creativecommons.org/ns#Notice" />
        <cc:requires
           rdf:resource="http://creativecommons.org/ns#Attribution" />
        <cc:permits
           rdf:resource="http://creativecommons.org/ns#DerivativeWorks" />
        <cc:requires
           rdf:resource="http://creativecommons.org/ns#ShareAlike" />
      </cc:License>
    </rdf:RDF>
  </metadata>
  <g
     inkscape:label="Layer 1"
     inkscape:groupmode="layer"
     id="layer1"
     transform="translate(0,-152.36218)">
    <rect
       style="opacity:1;color:#000000;fill:#ffffff;fill-opacity:1;fill-rule:nonzero;stroke:none;stroke-width:3.54299997999999980;marker:none;visibility:visible;display:inline;overflow:visible;enable-background:accumulate"
       id="rect10858"
       width="600"
       height="900"
       x="0"
       y="152.36218"
       rx="45" />
    <path
       style="opacity:1;color:#000000;fill:#000000;fill-opacity:1;fill-rule:nonzero;stroke:none;stroke-width:3.54299997999999980;marker:none;visibility:visible;display:inline;overflow:visible;enable-background:accumulate"
       d="M 45 10 C 25.61 10 10 25.61 10 45 L 10 855 C 10 874.39 25.61 890 45 890 L 555 890 C 574.39 890 590 874.39 590 855 L 590 45 C 590 25.61 574.39 10 555 10 L 45 10 z M 45 20 L 555 20 C 568.85 20 580 31.15 580 45 L 580 855 C 580 868.85 568.85 880 555 880 L 45 880 C 31.15 880 20 868.85 20 855 L 20 45 C 20 31.15 31.15 20 45 20 z "
       transform="translate(0,152.36218)"
       id="rect10864" />
    <rect
       rx="44"
       y="153.36218"
       x="1"
       height="898"
       width="598"
       id="rect10868"
       style="opacity:1;color:#000000;fill:none;stroke:#000000;stroke-width:2;stroke-miterlimit:4;stroke-opacity:1;stroke-dasharray:none;marker:none;visibility:visible;display:inline;overflow:visible;enable-background:accumulate"
       ry="44" />
    <rect
       style="opacity:1;color:#000000;fill:#000000;fill-opacity:1;fill-rule:nonzero;stroke:none;stroke-width:3.54299997999999980;marker:none;visibility:visible;display:inline;overflow:visible;enable-background:accumulate"
       id="rect10726"
       width="225"
       height="10.380682"
       x="187.5"
       y="536.51288" />
    <path
       inkscape:connector-curvature="0"
       style="opacity:1;color:#000000;fill:#000000;fill-opacity:1;fill-rule:nonzero;stroke:none;stroke-width:3.54299997999999980;marker:none;visibility:visible;display:inline;overflow:visible;enable-background:accumulate"
       d="m 187.50001,555.79967 0,65.3125 28.20312,0 0,-27.83203 65.62626,0 c 2.14165,8.32371 9.70173,14.47266 18.69378,14.47266 8.99219,0 16.50595,-6.14895 18.64745,-14.47266 l 65.62628,0 0,27.83203 28.20311,0 0,-65.3125 -28.20311,0 0,27.83203 -65.62628,0 c -2.1415,-8.32371 -9.65526,-14.47266 -18.64745,-14.47266 -8.99205,0 -16.55213,6.14895 -18.69378,14.47266 l -65.62627,0 0,-27.83203 -28.20312,0 z"
       id="path10728"
       sodipodi:nodetypes="cccccsccccccccsccccc" />
    <path
       sodipodi:nodetypes="sccccss"
       inkscape:connector-curvature="0"
       id="path10724"
       d="m 209.76562,264.86215 c -12.33515,0 -22.26562,9.93048 -22.26562,22.26563 l 0,240.46878 225,0 0,-240.46878 c 0,-12.33515 -9.93047,-22.26563 -22.26563,-22.26563 z"
       style="opacity:1;color:#000000;fill:#ff8000;fill-opacity:1;fill-rule:nonzero;stroke:none;stroke-width:3.54299997999999980;marker:none;visibility:visible;display:inline;overflow:visible;enable-background:accumulate" />
    <path
       inkscape:connector-curvature="0"
       style="color:#000000;fill:#0d69e1;fill-opacity:1;fill-rule:nonzero;stroke:none;stroke-width:1px;marker:none;visibility:visible;display:inline;overflow:visible;enable-background:accumulate"
       d="m 299.99999,692.36218 c -77.66504,0 -140.62499,62.95996 -140.62499,140.62501 0,77.66505 62.95995,140.62503 140.62499,140.62503 15.27327,0 29.97241,-2.45004 43.74129,-6.9528 l 0,-119.0918 c 0,-10.73711 -8.7087,-19.4458 -19.4458,-19.4458 l -68.03677,0 -4.6e-4,24.70941 -68.052,-39.28984 68.052,-39.28984 4.6e-4,24.70941 68.03677,0 c 26.84275,0 48.60665,21.7639 48.60665,48.60666 l 0,105.70417 c 40.60143,-24.66152 67.72287,-69.30922 67.72287,-120.2846 0,-77.66505 -62.95996,-140.62501 -140.62501,-140.62501 z"
       id="path7463"
       sodipodi:nodetypes="ssscsscccccsscss" />
  </g>
</svg>
