<svg width="100" height="86" xmlns="http://www.w3.org/2000/svg"><g transform="translate(10 3)" fill="none" fill-rule="evenodd"><rect fill="#FFF" fill-rule="nonzero" width="80" height="80" rx="6"/><rect stroke="#000" x=".5" y=".5" width="79" height="79" rx="6"/><path d="M5.803 3A2.797 2.797 0 0 0 3 5.803v68.394A2.797 2.797 0 0 0 5.803 77h68.394A2.797 2.797 0 0 0 77 74.197V5.803A2.797 2.797 0 0 0 74.197 3H5.803zM40 8.606L50.466 26.92h-6.542V40h-7.848V26.92h-6.542L40 8.606zm-7.848 34.011h15.696a3.916 3.916 0 0 1 3.925 3.925v18.31c0 .725-.583 1.31-1.307 1.31H29.534a1.306 1.306 0 0 1-1.307-1.31v-18.31a3.916 3.916 0 0 1 3.925-3.925zm-.785 1.7c-.725 0-1.307.582-1.307 1.307v6.149c0 .724.582 1.307 1.307 1.307h17.53c.724 0 1.306-.583 1.306-1.307v-6.15c0-.724-.582-1.306-1.307-1.306h-17.53zM29.275 67.47h3.14v2.354a1.57 1.57 0 1 1-3.14 0V67.47zm18.31 0h3.14v2.354a1.57 1.57 0 1 1-3.14 0V67.47z" fill="#0D69E1" fill-rule="nonzero"/></g></svg>