<?xml version="1.0" encoding="UTF-8" standalone="no"?>
<!-- Created with Inkscape (http://www.inkscape.org/) -->

<svg
   xmlns:dc="http://purl.org/dc/elements/1.1/"
   xmlns:cc="http://creativecommons.org/ns#"
   xmlns:rdf="http://www.w3.org/1999/02/22-rdf-syntax-ns#"
   xmlns:svg="http://www.w3.org/2000/svg"
   xmlns="http://www.w3.org/2000/svg"
   xmlns:sodipodi="http://sodipodi.sourceforge.net/DTD/sodipodi-0.dtd"
   xmlns:inkscape="http://www.inkscape.org/namespaces/inkscape"
   width="1400"
   height="700"
   id="svg2"
   version="1.1"
   inkscape:version="0.48.4 r9939"
   sodipodi:docname="5.15.7 B.svg">
  <title
     id="title14100">5.15.7 Направление движения по полосам</title>
  <defs
     id="defs4" />
  <sodipodi:namedview
     id="base"
     pagecolor="#ffffff"
     bordercolor="#666666"
     borderopacity="1.0"
     inkscape:pageopacity="0.0"
     inkscape:pageshadow="2"
     inkscape:zoom="1"
     inkscape:cx="703.44622"
     inkscape:cy="344.6841"
     inkscape:document-units="px"
     inkscape:current-layer="layer1"
     showgrid="false"
     inkscape:window-width="1920"
     inkscape:window-height="1024"
     inkscape:window-x="-4"
     inkscape:window-y="-4"
     inkscape:window-maximized="1"
     inkscape:snap-bbox="false"
     inkscape:bbox-paths="true"
     inkscape:bbox-nodes="true"
     inkscape:snap-bbox-edge-midpoints="true"
     inkscape:snap-bbox-midpoints="true"
     inkscape:object-paths="false"
     inkscape:snap-intersection-paths="true"
     inkscape:object-nodes="false"
     inkscape:snap-smooth-nodes="false"
     inkscape:snap-nodes="true"
     showguides="true"
     inkscape:guide-bbox="true"
     inkscape:snap-object-midpoints="true"
     inkscape:snap-center="true" />
  <metadata
     id="metadata7">
    <rdf:RDF>
      <cc:Work
         rdf:about="">
        <dc:format>image/svg+xml</dc:format>
        <dc:type
           rdf:resource="http://purl.org/dc/dcmitype/StillImage" />
        <dc:title>5.15.7 Направление движения по полосам</dc:title>
        <cc:license
           rdf:resource="http://creativecommons.org/licenses/by-sa/3.0/" />
        <dc:description>ГОСТ Р 52290-2004
Размеры и пропорции по типоразмеру II</dc:description>
      </cc:Work>
      <cc:License
         rdf:about="http://creativecommons.org/licenses/by-sa/3.0/">
        <cc:permits
           rdf:resource="http://creativecommons.org/ns#Reproduction" />
        <cc:permits
           rdf:resource="http://creativecommons.org/ns#Distribution" />
        <cc:requires
           rdf:resource="http://creativecommons.org/ns#Notice" />
        <cc:requires
           rdf:resource="http://creativecommons.org/ns#Attribution" />
        <cc:permits
           rdf:resource="http://creativecommons.org/ns#DerivativeWorks" />
        <cc:requires
           rdf:resource="http://creativecommons.org/ns#ShareAlike" />
      </cc:License>
    </rdf:RDF>
  </metadata>
  <g
     inkscape:label="Layer 1"
     inkscape:groupmode="layer"
     id="layer1"
     transform="translate(0,-352.36218)">
    <rect
       ry="45"
       rx="45"
       style="color:#000000;fill:#ffffff;fill-opacity:1;stroke:none;stroke-width:2;marker:none;visibility:visible;display:inline;overflow:visible;enable-background:accumulate;opacity:1"
       id="rect7667"
       width="1400"
       height="700"
       x="0"
       y="352.36218" />
    <rect
       y="353.36218"
       x="1"
       height="698"
       width="1398"
       id="rect7101"
       style="color:#000000;fill:none;stroke:#000000;stroke-width:1.99999988000000010;stroke-miterlimit:4;stroke-opacity:1;stroke-dasharray:none;marker:none;visibility:visible;display:inline;overflow:visible;enable-background:accumulate;opacity:1"
       rx="44"
       ry="44" />
    <path
       style="opacity:1;color:#000000;fill:#0d69e1;fill-opacity:1;fill-rule:nonzero;stroke:none;stroke-width:3.54299997999999980;marker:none;visibility:visible;display:inline;overflow:visible;enable-background:accumulate"
       d="M 45 20 C 31.15 20 20 31.15 20 45 L 20 655 C 20 668.85 31.15 680 45 680 L 466.65625 680 L 466.65625 595 L 490 595 L 490 680 L 910 680 L 910 20 L 735 20 L 735 466.65625 L 793.34375 466.65625 L 700 630 L 606.65625 466.65625 L 665 466.65625 L 665 20 L 490 20 L 490 105 L 466.65625 105 L 466.65625 20 L 280 20 L 280 466.65625 L 338.34375 466.65625 L 245 630 L 151.65625 466.65625 L 210 466.65625 L 210 20 L 45 20 z M 933.34375 20 L 933.34375 680 L 1120 680 L 1120 233.34375 L 1061.6562 233.34375 L 1155 70 L 1248.3438 233.34375 L 1190 233.34375 L 1190 680 L 1355 680 C 1368.85 680 1380 668.85 1380 655 L 1380 45 C 1380 31.15 1368.85 20 1355 20 L 933.34375 20 z M 466.65625 128.34375 L 490 128.34375 L 490 198.34375 L 466.65625 198.34375 L 466.65625 128.34375 z M 466.65625 221.65625 L 490 221.65625 L 490 291.65625 L 466.65625 291.65625 L 466.65625 221.65625 z M 466.65625 315 L 490 315 L 490 385 L 466.65625 385 L 466.65625 315 z M 466.65625 408.34375 L 490 408.34375 L 490 478.34375 L 466.65625 478.34375 L 466.65625 408.34375 z M 466.65625 501.65625 L 490 501.65625 L 490 571.65625 L 466.65625 571.65625 L 466.65625 501.65625 z "
       transform="translate(0,352.36218)"
       id="rect9536" />
  </g>
</svg>
