<svg xmlns="http://www.w3.org/2000/svg" width="700" height="700">
<title>8.13 Направление главной дороги</title>
<defs><style>.b{fill-rule:evenodd}</style></defs><path d="M0 45A45 45 0 0 1 45 0h610a45 45 0 0 1 45 45v610a45.001 45.001 0 0 1-45 45H45a45 45 0 0 1-45-45z" style="fill-rule:evenodd;fill:#fff"/><path class="b" d="M339 542h22v158h-22zM542 361v-22h158v22zM361 158h-22V0h22zM158 339v22H0v-22z"/><path class="b" d="M0 45A45 45 0 0 1 45 0h610a45 45 0 0 1 45 45v610a45.001 45.001 0 0 1-45 45H45a45 45 0 0 1-45-45zm10 0a35 35 0 0 1 35-35h610a35 35 0 0 1 35 35v610a35.001 35.001 0 0 1-35 35H45a35 35 0 0 1-35-35z"/><path class="b" d="M350 180a170 170 0 1 0 170 170 169.998 169.998 0 0 0-170-170zm0 270a100 100 0 1 1 100-100 99.998 99.998 0 0 1-100 100z"/></svg>